<svg width="41" height="66" viewBox="0 0 41 66" fill="none" xmlns="http://www.w3.org/2000/svg">
<path d="M29.3437 40.5368H7.5322C7.5322 34.5683 12.14 29.6736 17.9947 29.2079C17.9726 29.1977 17.9505 29.183 17.927 29.1712C17.9785 29.1815 18.027 29.1903 18.0755 29.2021H18.0785C23.6861 30.392 28.1145 34.8518 29.3437 40.5368Z" fill="#FE5000"/>
<path d="M30.2405 40.5368H25.5092C24.9461 35.6347 22.0349 31.4643 17.9564 29.2079C17.9814 29.205 18.0079 29.2035 18.0343 29.2035H18.0373C18.3122 29.1815 18.5886 29.1726 18.868 29.1726C25.149 29.1712 30.2405 34.2598 30.2405 40.5368Z" fill="#FE5000"/>
<path d="M29.304 40.5368L25.5092 40.5368C24.9461 35.6347 22.0349 31.4643 17.9564 29.2079L17.9535 29.2079C17.9315 29.1977 17.9094 29.183 17.8859 29.1712C17.9373 29.1815 17.9859 29.1903 18.0344 29.2021H18.0373C23.6464 30.392 28.0749 34.8518 29.304 40.5368Z" fill="white"/>
<path d="M19.8222 29.1271H17.9093C17.7035 29.1271 17.5344 28.9582 17.5344 28.7525V28.2648C17.5344 28.0591 17.7035 27.8902 17.9093 27.8902H19.8236C20.0295 27.8902 20.1986 28.0591 20.1986 28.2648V28.7525C20.1971 28.9596 20.0295 29.1271 19.8222 29.1271Z" fill="#FE5000"/>
<path d="M10.4728 28.8304C10.3008 29.1463 10.1729 29.4739 10.1126 29.8059C10.0861 29.9718 10.067 30.1378 10.0832 30.3024C10.0876 30.4669 10.1273 30.627 10.1773 30.7813C10.2096 30.8591 10.2346 30.9296 10.2714 31.0134C10.3066 31.0986 10.3493 31.1794 10.3772 31.269C10.4404 31.4423 10.4875 31.6259 10.5066 31.814C10.5272 32.0005 10.5154 32.1959 10.4566 32.3781C10.3993 32.5587 10.2861 32.7218 10.1405 32.8276C10.3463 32.5235 10.3566 32.1739 10.2802 31.8492C10.2375 31.6876 10.192 31.5246 10.1185 31.3703C10.0876 31.291 10.0479 31.2146 10.0126 31.1368C9.97584 31.0574 9.93614 30.9634 9.89938 30.8767C9.77882 30.511 9.77441 30.107 9.89056 29.75C10.0023 29.3931 10.2052 29.0714 10.4728 28.8304Z" fill="#FE5000"/>
<path d="M9.82582 29.1918C9.6935 29.4562 9.59499 29.725 9.55088 29.9953C9.5053 30.2656 9.52736 30.5329 9.60969 30.7812L9.68615 30.9678C9.71555 31.0383 9.74937 31.1059 9.77142 31.1793C9.82288 31.3233 9.86111 31.476 9.87434 31.6318C9.89051 31.7875 9.87728 31.9491 9.82582 32.1004C9.77436 32.2502 9.67732 32.3824 9.55382 32.4661C9.71261 32.2091 9.71261 31.93 9.64792 31.6685C9.61116 31.5377 9.57293 31.407 9.51265 31.2821C9.48766 31.219 9.45384 31.1558 9.42444 31.0941C9.39503 31.0295 9.36122 30.9501 9.33181 30.8782C9.22742 30.5741 9.23036 30.2362 9.32887 29.9409C9.42444 29.6457 9.59646 29.3827 9.82582 29.1918Z" fill="#FE5000"/>
<path d="M10.9094 29.1418C10.7771 29.4062 10.6786 29.675 10.6345 29.9453C10.5889 30.2156 10.611 30.483 10.6933 30.7312L10.7697 30.9178C10.7991 30.9883 10.833 31.0559 10.855 31.1293C10.9065 31.2733 10.9447 31.4261 10.9579 31.5818C10.9741 31.7375 10.9609 31.8991 10.9094 32.0504C10.858 32.2002 10.7609 32.3324 10.6374 32.4162C10.7962 32.1591 10.7962 31.88 10.7315 31.6185C10.6948 31.4878 10.6565 31.357 10.5962 31.2322C10.5713 31.169 10.5374 31.1058 10.508 31.0441C10.4786 30.9795 10.4448 30.9002 10.4154 30.8282C10.311 30.5241 10.314 30.1862 10.4125 29.891C10.5066 29.5957 10.6801 29.3328 10.9094 29.1418Z" fill="#FE5000"/>
<path d="M39.4606 64.2051H1.6129C0.763084 64.2051 0.0749985 63.5176 0.0749985 62.6686V44.0462C0.0749985 43.1971 0.763084 42.5096 1.6129 42.5096H40.9985V62.6671C40.9985 63.5162 40.3104 64.2051 39.4606 64.2051Z" fill="#DAD9D9"/>
<path d="M40.9985 42.5096L34.5411 42.5096V0H39.7297C40.431 0 41 0.568499 41 1.26921V42.5096L40.9985 42.5096Z" fill="#DAD9D9"/>
<path d="M34.5411 0H0.0749985V3.10691H34.5411L34.5411 0Z" fill="#DAD9D9"/>
<path d="M31.6329 57.3582H9.4406C8.68782 57.3582 8.07766 56.7485 8.07766 55.9964V50.8403C8.07766 50.0881 8.68782 49.4785 9.4406 49.4785H31.6329C32.3857 49.4785 32.9958 50.0881 32.9958 50.8403V55.9964C32.9973 56.7485 32.3857 57.3582 31.6329 57.3582Z" fill="#779193"/>
<path d="M7.35724 65.3877H2.75676C2.57738 65.3877 2.43036 65.2408 2.43036 65.0616V64.6356C2.43036 64.4564 2.57738 64.3095 2.75676 64.3095H7.35724C7.53661 64.3095 7.68364 64.4564 7.68364 64.6356V65.0616C7.68364 65.2423 7.53661 65.3877 7.35724 65.3877Z" fill="white"/>
<path d="M36.0202 65.3877H31.4197C31.2403 65.3877 31.0933 65.2408 31.0933 65.0616V64.6356C31.0933 64.4564 31.2403 64.3095 31.4197 64.3095H36.0202C36.1996 64.3095 36.3466 64.4564 36.3466 64.6356V65.0616C36.3466 65.2423 36.1996 65.3877 36.0202 65.3877Z" fill="white"/>
<path d="M3.04789 10.2447H0.0749985V44.8512H3.04789V10.2447Z" fill="#DAD9D9"/>
<path d="M1.56143 7.89435C2.42378 7.89435 3.12286 7.19588 3.12286 6.33428C3.12286 5.47268 2.42378 4.77421 1.56143 4.77421C0.699077 4.77421 0 5.47268 0 6.33428C0 7.19588 0.699077 7.89435 1.56143 7.89435Z" fill="#779193"/>
<path d="M40.0458 31.4599H35.4086C35.2454 31.4599 35.1131 31.3277 35.1131 31.1646V13.0828C35.1131 12.9198 35.2454 12.7875 35.4086 12.7875H40.0458C40.209 12.7875 40.3414 12.9198 40.3414 13.0828V31.1646C40.3428 31.3277 40.209 31.4599 40.0458 31.4599Z" fill="white"/>
<path d="M39.9237 30.8606L35.5688 30.9678V15.4068L39.9135 13.3958L39.9237 30.8606Z" fill="#779193"/>
<path d="M36.5994 22.5696H36.0716V22.8854H36.5994V22.5696Z" fill="white"/>
<path d="M37.6051 22.5696H37.0773V22.8854H37.6051V22.5696Z" fill="white"/>
<path d="M38.5196 22.5696H37.9918V22.8854H38.5196V22.5696Z" fill="white"/>
<path d="M39.4341 22.5696H38.9063V22.8854H39.4341V22.5696Z" fill="white"/>
<path d="M36.5994 23.4362H36.0716V23.7521H36.5994V23.4362Z" fill="white"/>
<path d="M37.6051 23.4362H37.0773V23.7521H37.6051V23.4362Z" fill="white"/>
<path d="M38.5196 23.4362H37.9918V23.7521H38.5196V23.4362Z" fill="white"/>
<path d="M39.4341 23.4362H38.9063V23.7521H39.4341V23.4362Z" fill="white"/>
<path d="M36.5921 24.2339H36.0643V24.5498H36.5921V24.2339Z" fill="white"/>
<path d="M37.5978 24.2339H37.07V24.5498H37.5978V24.2339Z" fill="white"/>
<path d="M38.5123 24.2339H37.9844V24.5498H38.5123V24.2339Z" fill="white"/>
<path d="M39.4283 24.2339H38.9005V24.5498H39.4283V24.2339Z" fill="white"/>
<path d="M36.5921 25.0742H36.0643V25.39H36.5921V25.0742Z" fill="white"/>
<path d="M37.5978 25.0742H37.07V25.39H37.5978V25.0742Z" fill="white"/>
<path d="M38.5123 25.0742H37.9844V25.39H38.5123V25.0742Z" fill="white"/>
<path d="M39.4283 25.0742H38.9005V25.39H39.4283V25.0742Z" fill="white"/>
<path d="M39.3488 28.7217H36.2936C36.1716 28.7217 36.0716 28.6218 36.0716 28.4999V27.5803C36.0716 27.4584 36.1716 27.3585 36.2936 27.3585H39.3488C39.4709 27.3585 39.5709 27.4584 39.5709 27.5803V28.4999C39.5709 28.6233 39.4709 28.7217 39.3488 28.7217Z" fill="white"/>
<path d="M38.9005 28.2487H36.9818V28.8304H38.9005V28.2487Z" fill="#FE5000"/>
<path d="M34.5411 22.123H3.04786V23.7521H34.5411V22.123Z" fill="#FE5000"/>
<path d="M9.62732 21.3091H5.84725V13.2135C5.84725 12.5818 6.35891 12.0706 6.99113 12.0706H8.48345C9.11567 12.0706 9.62732 12.5818 9.62732 13.2135V21.3091Z" fill="#FE5000"/>
<path d="M8.41136 13.0975H7.06165L7.39981 10.6046H8.07466L8.41136 13.0975Z" fill="#FE5000"/>
<path d="M7.88355 11.3817H7.35131C7.19252 11.3817 7.06314 11.2524 7.06314 11.0938V10.4048C7.06314 10.3167 7.13518 10.2462 7.22193 10.2462H8.25259C8.34081 10.2462 8.41138 10.3181 8.41138 10.4048V10.8529C8.41138 11.1437 8.17467 11.3817 7.88355 11.3817Z" fill="#FE5000"/>
<path d="M14.8041 21.3092H11.6372C11.299 21.3092 11.0241 21.0345 11.0241 20.6966V13.2121C11.0241 12.5805 11.5357 12.0692 12.1679 12.0692H13.6603C14.2925 12.0692 14.8041 12.5805 14.8041 13.2121V21.3092Z" fill="#FE5000"/>
<path d="M13.5897 13.0976H12.2399L12.5766 10.6047H13.2515L13.5897 13.0976Z" fill="#FE5000"/>
<path d="M13.0604 11.3817H12.3987C12.3105 11.3817 12.2399 11.3098 12.2399 11.2231V10.4063C12.2399 10.3182 12.312 10.2477 12.3987 10.2477H13.4294C13.5176 10.2477 13.5882 10.3197 13.5882 10.4063V10.8544C13.5897 11.1438 13.3515 11.3817 13.0604 11.3817Z" fill="#FE5000"/>
<path d="M19.1635 21.3091H15.9966V13.2135C15.9966 12.5818 16.5082 12.0706 17.1404 12.0706H18.6328C19.265 12.0706 19.7766 12.5818 19.7766 13.2135V20.698C19.7766 21.0359 19.5017 21.3091 19.1635 21.3091Z" fill="#FE5000"/>
<path d="M18.5621 13.0975H17.211L17.5491 10.6046H18.224L18.5621 13.0975Z" fill="#FE5000"/>
<path d="M18.0329 11.3817H17.5006C17.3418 11.3817 17.2125 11.2524 17.2125 11.0938V10.4048C17.2125 10.3167 17.2845 10.2462 17.3712 10.2462H18.4019C18.4901 10.2462 18.5607 10.3181 18.5607 10.4048V10.8529C18.5622 11.1437 18.324 11.3817 18.0329 11.3817Z" fill="#FE5000"/>
<path d="M25.277 21.3091H21.9115C21.7968 21.3091 21.7042 21.2166 21.7042 21.102V12.8081C21.7042 12.4012 22.035 12.0706 22.4423 12.0706H24.7447C25.152 12.0706 25.4828 12.4012 25.4828 12.8081V21.102C25.4843 21.2166 25.3917 21.3091 25.277 21.3091Z" fill="#FE5000"/>
<path d="M24.2698 13.0975H22.9201L23.2568 10.6046H23.9331L24.2698 13.0975Z" fill="#FE5000"/>
<path d="M23.742 11.3817H23.2098C23.051 11.3817 22.9216 11.2524 22.9216 11.0938V10.4048C22.9216 10.3167 22.9936 10.2462 23.0804 10.2462H24.111C24.1993 10.2462 24.2698 10.3181 24.2698 10.4048V10.8529C24.2698 11.1437 24.0317 11.3817 23.742 11.3817Z" fill="#FE5000"/>
<path d="M30.6154 21.3092H27.2705C27.15 21.3092 27.0529 21.2122 27.0529 21.0918V13.2121C27.0529 12.5804 27.5646 12.0692 28.1968 12.0692H29.6891C30.3214 12.0692 30.833 12.5804 30.833 13.2121V21.0918C30.833 21.2122 30.736 21.3092 30.6154 21.3092Z" fill="#FE5000"/>
<path d="M29.6171 13.0975H28.2674L28.6056 10.6046H29.2804L29.6171 13.0975Z" fill="#FE5000"/>
<path d="M29.0892 11.3817H28.557C28.3982 11.3817 28.2688 11.2524 28.2688 11.0938V10.4048C28.2688 10.3167 28.3409 10.2462 28.4276 10.2462H29.4583C29.5465 10.2462 29.6171 10.3181 29.6171 10.4048V10.8529C29.6171 11.1437 29.3804 11.3817 29.0892 11.3817Z" fill="#FE5000"/>
</svg>
