<svg version="1.0" xmlns="http://www.w3.org/2000/svg" viewBox="0 0 57 57"><path d="M3 9.3C.9 10.4.5 11.4.2 15.8L-.1 21h3.4c1.9 0 4-.7 4.8-1.6.8-1 2.4-1.4 4.6-1.2l3.3.4V8h-5.2C7.9 8 4.4 8.6 3 9.3zm17 4.6v5.9l3-1.1c2.5-1 3.2-.8 5.3 1.1 2.2 2 3.3 2.2 15.6 2.2h13.2l-.3-5.7c-.4-7.9-1.3-8.3-21-8.3H20v5.9zm-9.5 9c-.7 1.2 1.2 2.4 2.5 1.6 1.1-.7.4-2.5-1-2.5-.5 0-1.1.4-1.5.9zm12.2-.3c-.9 1 .2 2.4 1.9 2.4.8 0 1.4-.7 1.4-1.5 0-1.5-2.1-2.1-3.3-.9zm4.9 5c-2.1 1.9-2.6 2.8-1.7 3.7 1.7 1.7 1.3 3.7-.7 3.7-.9 0-2.5-1.2-3.4-2.8-1.7-2.7-1.7-2.6-1.8 7V49h15.8c21.3 0 20.6.4 21-13.3l.3-10.7H43.8c-12.8.1-13.4.2-16.2 2.6zm22.9 5.9c0 1.1-13.8 2-16.2 1.1-.8-.3-1.1-1.1-.8-1.6.9-1.4 17-.9 17 .5zm-.6 5.8c1.8 2.2.2 2.7-8 2.7-7.4 0-9.7-.8-8.4-3 1-1.6 15-1.3 16.4.3zM0 35.9c0 11.8.4 12.3 9.6 12.9l6.4.4v-8.8c0-8.8-.1-8.9-1.9-6.5-1.9 2.5-4.1 2.1-4.1-.8 0-.9.5-2.2 1.2-2.9.9-.9.8-1.2-.4-1.2-.8 0-2.1-.7-2.8-1.5-.7-.8-2.8-1.5-4.6-1.5H0v9.9z" fill="#F30"/><path d="M16.3 14c0 3.6.2 5 .4 3.2.2-1.7.2-4.7 0-6.5-.2-1.7-.4-.3-.4 3.3zM1.8 21.7c1.2.2 3 .2 4 0 .9-.3-.1-.5-2.3-.4-2.2 0-3 .2-1.7.4zm0 4c1.2.2 3 .2 4 0 .9-.3-.1-.5-2.3-.4-2.2 0-3 .2-1.7.4zm14 5c-.2.5 0 4.8.3 9.8l.5 9 .2-9.8c.2-8.7-.1-11.1-1-9zM12 35c-.9.6-1 1-.3 1 .6 0 1.5-.5 1.8-1 .8-1.2.4-1.2-1.5 0z" fill="#F60"/><path d="M17.3 14c0 3.6.2 5 .4 3.2.2-1.7.2-4.7 0-6.5-.2-1.7-.4-.3-.4 3.3zM0 23.5c0 1 1 1.5 3 1.5s3-.5 3-1.5S5 22 3 22s-3 .5-3 1.5zm16.8 12.7c.4 12.5.9 13.7 1 3 .1-5.6-.1-10.2-.5-10.2-.5 0-.7 3.3-.5 7.2z" fill="#F93"/><path d="M18 14.5c0 3.7.4 6.5 1 6.5s1-2.8 1-6.5S19.6 8 19 8s-1 2.8-1 6.5zm5.8 4.2c.7.3 1.6.2 1.9-.1.4-.3-.2-.6-1.3-.5-1.1 0-1.4.3-.6.6zm.2 2.7c0 .2.7.7 1.6 1 .8.3 1.2.2.9-.4-.6-1-2.5-1.4-2.5-.6zm5.5 2.1c0 1.9.6 2 13.7 1.7 11-.2 13.8-.6 13.8-1.7s-2.8-1.5-13.8-1.7c-13.1-.3-13.7-.2-13.7 1.7zM25 25c-.9.6-1 1-.3 1 .6 0 1.5-.5 1.8-1 .8-1.2.4-1.2-1.5 0zm-7 12.9c0 6.2.4 11.1.9 11.1 1.5 0 1.8-20 .4-21.2-1-.8-1.3 1.3-1.3 10.1z" fill="#F90"/><path d="M17 20.7c1.4.7 1.3 5.6-.2 7.1-.9.9-.9 1.2 0 1.2 2.5 0 2.9-8.1.4-8.6-.7-.1-.8 0-.2.3zM6.3 22.6c-.3.8-.2 1.9.3 2.4s.9-.1.9-1.6c0-2.8-.3-3-1.2-.8zm4.5-.9c.7.3 1.6.2 1.9-.1.4-.3-.2-.6-1.3-.5-1.1 0-1.4.3-.6.6zm3.5 1.8c0 .8.4 1.2.9.9.5-.3.6-1 .3-1.5-.9-1.3-1.2-1.1-1.2.6z" fill="#FC3"/><path d="M7.9 21.1C6.4 24 8.2 28 11 28c2.4 0 2.5.8.5 3.7-.9 1.3-1.1 2.4-.6 2.8 1.3.8 7.1-7.8 7.1-10.6 0-4.6-7.9-6.8-10.1-2.8zm6.6 1.3c1.8 1.3 1.8 1.4-.3 2.5-2.7 1.4-4.2.7-4.2-2 0-2.2 1.8-2.5 4.5-.5z" fill="#FF3"/><path d="M20.8 20.1c-2.6 1.5-2.2 6.3.8 10.9 3.9 5.9 5.5 5.1 2.9-1.3-.5-1.3-.2-1.7 1.4-1.7 2.9 0 4.7-4 3.2-6.9-1.3-2.3-5.3-2.8-8.3-1zm5.9 2.5c1 2.6-1.2 3.8-3.7 2.1-2.1-1.4-2.1-1.6-.3-2.6 2.5-1.4 3.3-1.4 4 .5z" fill="#FC0"/><path d="M34.5 33c-.3.5 0 1.3.8 1.6 2.3.9 14.2 0 14.2-1.1 0-1.4-14.2-1.9-15-.5zm-.5 7c0 .6 3.3 1 8 1s8-.4 8-1-3.3-1-8-1-8 .4-8 1z" fill="#666"/><path d="M38.3 41.7c2 .2 5.4.2 7.5 0 2-.2.3-.4-3.8-.4s-5.8.2-3.7.4z" fill="#633"/><path d="M33.7 38.7c-.3.5 2 .7 5.1.5 9.8-.5 11-.9 3-1.1-4.2 0-7.9.2-8.1.6z" fill="#C33"/></svg>