<svg width="16" height="20" viewBox="0 0 16 20" fill="none" xmlns="http://www.w3.org/2000/svg">
<path d="M3.9 5.825V3.05H5.025V5.825H3.9ZM3.9 14.4V9.8H5.025V14.4H3.9ZM1.95 19.5H14.05C14.45 19.5 14.7917 19.3583 15.075 19.075C15.3583 18.7917 15.5 18.45 15.5 18.05V8.375H0.5V18.05C0.5 18.45 0.641667 18.7917 0.925 19.075C1.20833 19.3583 1.55 19.5 1.95 19.5ZM0.5 7.225H15.5V1.95C15.5 1.55 15.3583 1.20833 15.075 0.925C14.7917 0.641667 14.45 0.5 14.05 0.5H1.95C1.55 0.5 1.20833 0.641667 0.925 0.925C0.641667 1.20833 0.5 1.55 0.5 1.95V7.225Z" fill="#FE5000"/>
</svg>
