<svg width="16" height="20" viewBox="0 0 16 20" fill="none" xmlns="http://www.w3.org/2000/svg">
<path d="M3.9 5.825V3.05H5.025V5.825H3.9ZM3.9 14.4V9.8H5.025V14.4H3.9ZM1.95 19.5C1.55 19.5 1.20833 19.3583 0.925 19.075C0.641667 18.7917 0.5 18.45 0.5 18.05V1.95C0.5 1.55 0.641667 1.20833 0.925 0.925C1.20833 0.641667 1.55 0.5 1.95 0.5H14.05C14.45 0.5 14.7917 0.641667 15.075 0.925C15.3583 1.20833 15.5 1.55 15.5 1.95V18.05C15.5 18.45 15.3583 18.7917 15.075 19.075C14.7917 19.3583 14.45 19.5 14.05 19.5H1.95ZM1.95 18.375H14.05C14.15 18.375 14.2292 18.3458 14.2875 18.2875C14.3458 18.2292 14.375 18.15 14.375 18.05V8.375H1.625V18.05C1.625 18.15 1.65417 18.2292 1.7125 18.2875C1.77083 18.3458 1.85 18.375 1.95 18.375ZM1.625 7.225H14.375V1.95C14.375 1.85 14.3458 1.77083 14.2875 1.7125C14.2292 1.65417 14.15 1.625 14.05 1.625H1.95C1.85 1.625 1.77083 1.65417 1.7125 1.7125C1.65417 1.77083 1.625 1.85 1.625 1.95V7.225Z" fill="#797878"/>
</svg>
